<svg xmlns="http://www.w3.org/2000/svg" xmlns:xlink="http://www.w3.org/1999/xlink" version="1.1" x="0px" y="0px" viewBox="0 0 2000 2000" style="enable-background:new 0 0 2000 2000;" xml:space="preserve"><g><path d="M702.1,1116.7c-24.1,24.1-37.3,56-37.3,90s13.2,66,37.3,90c24.8,24.8,57.4,37.2,90,37.2c32.6,0,65.3-12.4,90-37.2   c24.1-24.1,37.3-56,37.3-90s-13.2-66-37.3-90C832.5,1067,751.7,1067,702.1,1116.7z M835,1249.5c-23.7,23.7-62.2,23.7-85.9,0   c-11.4-11.4-17.8-26.7-17.8-42.9c0.1-16.2,6.4-31.4,17.8-42.9c11.8-11.8,27.4-17.7,42.9-17.7s31.1,6,43,17.7   c11.4,11.4,17.8,26.7,17.8,42.9C852.8,1222.8,846.4,1238,835,1249.5z"/><ellipse transform="matrix(0.7071 -0.7071 0.7071 0.7071 -845.8513 703.6218)" cx="426.4" cy="1372.8" rx="35.7" ry="35.7"/><ellipse transform="matrix(0.7071 -0.7071 0.7071 0.7071 245.4248 1077.7722)" cx="1423.7" cy="242.6" rx="35.7" ry="35.7"/><ellipse transform="matrix(0.7071 -0.7071 0.7071 0.7071 106.7679 942.4596)" cx="1191" cy="342.3" rx="35.7" ry="35.7"/><ellipse transform="matrix(0.7071 -0.7071 0.7071 0.7071 107.7173 1410.1614)" cx="1756.1" cy="575.1" rx="35.7" ry="35.7"/><ellipse transform="matrix(0.7071 -0.7071 0.7071 0.7071 -85.987 1407.8125)" cx="1656.4" cy="807.7" rx="35.7" ry="35.7"/><ellipse transform="matrix(0.7071 -0.7071 0.7071 0.7071 -904.2358 562.5978)" cx="227" cy="1372.8" rx="35.7" ry="35.7"/><ellipse transform="matrix(0.7071 -0.7071 0.7071 0.7071 -1053.3351 734.4937)" cx="359.9" cy="1638.7" rx="35.7" ry="35.7"/><ellipse transform="matrix(0.7071 -0.7071 0.7071 0.7071 -1069.5453 961.4955)" cx="625.9" cy="1771.8" rx="35.7" ry="35.7"/><ellipse transform="matrix(0.7071 -0.7071 0.7071 0.7071 -920.3184 789.627)" cx="493" cy="1505.7" rx="35.7" ry="35.7"/><ellipse transform="matrix(0.7071 -0.7071 0.7071 0.7071 -928.4606 903.0765)" cx="625.9" cy="1572.3" rx="35.7" ry="35.7"/><path d="M1990,420.2l-146.6-146.6c-5.3-5.3-12.5-8.3-20-8.3s-14.7,3-20,8.3l-212.6,212.6l-77.4-77.4l212.5-212.6   c11.1-11.1,11.1-29,0-40.1L1579.2,9.5c-8.3-8.3-20.8-10.6-31.6-5.9L468.9,483.1c-1.1,0.5-2.1,1-3.2,1.7   c-42,19.1-82.7,42.1-121,68.3l-9.4,6.5c-6.2,4.3-10.5,10.8-11.8,18.2c-1.4,7.4,0.3,15.1,4.6,21.3l6.7,9.7L194.2,749.4l-9.7-6.7   c-6.2-4.3-13.9-5.9-21.3-4.6c-7.4,1.4-14,5.6-18.2,11.8l-6.5,9.4c-215.4,314-176,737.6,93.7,1007.2   c37.7,37.7,79.3,71.7,123.5,100.9c43.3,28.6,89.6,53.1,137.6,72.6c47.4,19.3,96.9,34.1,147.2,43.9c50,9.8,101.3,14.7,152.2,14.7   c78.4,0,156-11.6,230.7-34.4c76.8-23.4,149.4-58.5,215.9-104.1l9.4-6.5c6.2-4.3,10.5-10.8,11.8-18.2c1.4-7.4-0.3-15.1-4.6-21.3   l-7.4-10.7l140.4-140.4l10.7,7.4c6.2,4.3,13.9,5.9,21.3,4.6c7.4-1.4,14-5.6,18.2-11.8l6.5-9.4c22.4-32.6,42.3-66.8,59.2-101.7   l106.4,59.2c11.1,6.2,24.9,4.2,33.8-4.7l139.7-139.7c1.1-1.1,2.1-2.3,3-3.6l172.4-241.3c8.1-11.3,6.8-26.7-3-36.5L1843.9,1072   c-9.8-9.8-25.2-11.1-36.5-3l-125.7,89.8l314.1-706.9C2000.6,441.1,1998.3,428.5,1990,420.2z M1827.8,361.6   C1827.8,361.6,1827.8,361.6,1827.8,361.6C1827.8,361.6,1827.8,361.6,1827.8,361.6L1827.8,361.6z M1534.4,542.6l-375.8,375.8   l-77.4-77.4l375.8-375.8L1534.4,542.6z M1004.9,1591.2l21.7,31.4c-29.7,16.8-61.3,30.4-93.9,40.4c-32.6,10-66.4,16.5-100.7,19.3   v-203.8c27.3-4,53.6-11.9,78.4-23.8l13.1,18.9c6.7,12.8,20.1,21.5,35.5,21.5c22.1,0,40.1-17.9,40.1-40.1c0-10.2-3.8-19.4-10-26.5   l-12.6-18.3c3.5-3.2,6.8-6.2,9.9-9.2c0.1-0.1,0.2-0.2,0.2-0.2c3.3-3.3,6.4-6.6,9.3-9.9l210.7,145.9l-84.2,84.2l-52.5-75.8   c-1.5-2.7-3.2-5.2-5.2-7.5l-0.3-0.4l0,0c-7.3-8.2-18-13.3-29.8-13.3c-22.1,0-40.1,17.9-40.1,40.1   C994.5,1574.6,998.4,1584,1004.9,1591.2z M1040.2,1324.9c4-8.3,7.5-16.7,10.5-25.1l178.3,99c-6.4,14.5-13.5,28.6-21.1,42.2   L1040.2,1324.9z M1021.5,1055.4c-10.2-15.5-22-30-35.1-43.1c-12.9-12.9-27-24.5-42.2-34.5l80.5-80.5l77.4,77.4L1021.5,1055.4z    M929.9,749.8c31.9,9.5,62.7,22.4,91.7,38.3L867.3,942.2c-11.8-3.3-23.6-5.8-35.4-7.5V731.4C865.2,734.1,898.1,740.3,929.9,749.8z    M831.9,651.7V495.4c65,3.6,128.7,15.8,189.4,36.4c60.4,20.5,117.9,49.2,171,85.4l-112.6,112.6   C1005.2,684.8,919.7,657.9,831.9,651.7z M1211.3,978.2c14.3,26.1,26.1,53.7,35.2,82c9,28,15.4,57.1,19.1,86.4l-176.4-46.5   L1211.3,978.2z M1547.8,90.7l85.5,85.5l-383.9,383.9c-62.7-44.5-131.1-79.5-203.4-103.9c-73.2-24.7-149.9-38.5-228.3-41.1   L1547.8,90.7z M581.5,525.8c55.2-17,112.6-27.3,170.9-30.4v156.4c-41.9,3-83.4,10.6-123.4,22.8c-40.8,12.4-80,29.5-116.6,50.8   l-88.8-128.3C473.2,566.7,526.3,542.8,581.5,525.8z M376.6,875.7l84.5-84.5l146.6,211.8c-3.5,3.2-6.8,6.3-10,9.3   c-3.3,3.3-6.4,6.7-9.5,10.1L376.6,875.7z M544,1088.5c-11.9,24.7-19.9,51-23.9,78.4H316.5c2.8-34.3,9.3-68.1,19.3-100.7   c10-32.6,23.6-64.2,40.4-93.9L544,1088.5z M557.7,790.8c29.9-16.8,61.7-30.4,94.7-40.5c32.4-9.9,66-16.3,100-19v203.4   c-27.3,4-53.7,11.9-78.5,23.8L557.7,790.8z M380.9,675.2l34.2,49.5l-105,105l-49.5-34.2L380.9,675.2z M110.6,998.1   c17.2-56.1,41.3-109.9,71.8-160.1l128.2,88.8c-21.3,36.5-38.4,75.4-50.8,115.7c-12.4,40.2-20.2,82-23.2,124.4H80.6   C83.8,1109.5,93.8,1052.8,110.6,998.1z M752.3,1918c-175.1-9.9-339.7-83.5-464-207.7c-124.2-124.2-197.8-288.7-207.7-464h439.5   c8.5,58.9,35.2,112.2,77.6,154.6c42.4,42.4,95.7,69.1,154.6,77.6V1918z M792.1,1401.9c-52.2,0-101.2-20.3-138.1-57.2   c-36.9-36.9-57.2-85.9-57.2-138.1c0-52.2,20.3-101.2,57.2-138.1c36.9-36.9,85.9-57.2,138.1-57.2c52.2,0,101.2,20.3,138.1,57.2   c36.9,36.9,57.2,85.9,57.2,138.1c0,52.2-20.3,101.2-57.2,138.1C893.3,1381.6,844.3,1401.9,792.1,1401.9z M1000.6,1888.1   c-54.7,16.7-111.4,26.8-168.7,30V1762c42.3-3,84.1-10.8,124.4-23.2c40.3-12.4,79.2-29.5,115.7-50.8l88.8,128.2   C1110.5,1846.8,1056.7,1871,1000.6,1888.1z M1202.6,1737.1l-34.2-49.5l104.7-104.7l49.5,34.2L1202.6,1737.1z M1401.9,1575.3   l-128.2-88.8c9.1-15.6,17.5-31.9,25.2-48.8l136.4,75.8C1424.9,1535.1,1413.7,1555.8,1401.9,1575.3z M1465.7,1439.4l-399-221.7   c0.1-3.4,0.2-7,0.2-11c0-9.9-0.6-20.1-1.7-30.4l434.4,114.3C1493.7,1341.3,1482.3,1391.3,1465.7,1439.4z M1504.5,1209.5   l-156.7-41.3c-3-43.9-11.2-87.4-24.3-129.2c-13.1-41.6-31.2-81.6-53.8-119.2l112.5-112.6c37.2,54.7,66.4,114,86.9,176.4   c21.3,64.9,33.2,133.1,35.2,202.5C1504.4,1193.2,1504.5,1200.6,1504.5,1209.5z M1616.2,1523l-79.9-44.4   c19.2-52.6,32.8-107.1,40.3-162.4l123.2,123.2L1616.2,1523z M1818.3,1158.8l52,52l-36.2,50.8l-66.6-66.6L1818.3,1158.8z    M1701.9,1241.9l85.3,85.3L1751,1378l-99.8-99.8L1701.9,1241.9z M1583.7,1183.3c-2.3-78.9-16.1-156.4-40.9-230.1   c-24.3-72.1-59.1-140.4-103.5-203l384-384l85.6,85.5L1583.7,1183.3z"/></g></svg>